<?xml version="1.0" encoding="UTF-8" ?>
<!DOCTYPE svg PUBLIC "-//W3C//DTD SVG 1.1//EN" "http://www.w3.org/Graphics/SVG/1.1/DTD/svg11.dtd">
<svg width="260pt" height="260pt" viewBox="0 0 260 260" version="1.1" xmlns="http://www.w3.org/2000/svg">
<g id="#ef3087ff">
<path fill="#ef3087" stroke="#ef3087" stroke-width="0.09375" opacity="1.00" d=" M 120.66 0.00 L 138.36 0.00 C 153.00 1.72 167.59 4.95 181.17 10.80 C 212.13 22.95 236.77 48.81 249.82 79.15 C 255.73 92.57 258.72 107.08 260.00 121.64 L 260.00 137.36 C 257.96 158.84 251.45 179.92 240.55 198.57 C 223.70 225.95 196.28 246.57 165.35 255.30 C 156.23 257.89 146.81 259.23 137.38 260.00 L 121.66 260.00 C 107.55 258.12 93.40 255.45 80.27 249.75 C 48.89 237.90 23.78 212.08 10.46 181.56 C 4.66 168.52 1.48 154.48 0.00 140.33 L 0.00 122.63 C 1.75 102.33 7.83 82.45 17.51 64.54 C 28.23 45.97 43.68 30.17 61.98 18.98 C 79.63 8.00 99.97 1.68 120.66 0.00 M 85.42 31.68 C 69.80 34.36 56.58 48.06 55.52 64.04 C 54.06 78.48 62.31 93.27 75.36 99.59 C 86.19 105.07 99.67 104.23 110.04 98.07 C 123.78 90.12 130.45 72.31 125.87 57.19 C 121.19 40.30 102.76 28.35 85.42 31.68 M 184.34 56.33 C 172.13 59.30 161.46 68.94 158.12 81.19 C 154.86 92.41 157.24 105.20 164.77 114.22 C 174.26 126.14 191.80 130.54 205.88 124.87 C 216.17 120.89 224.11 111.78 227.26 101.28 C 231.05 88.27 226.88 73.33 216.55 64.47 C 207.95 56.69 195.60 53.64 184.34 56.33 M 126.32 114.38 C 118.25 116.07 112.55 124.75 114.20 132.83 C 115.53 141.24 124.47 147.45 132.82 145.75 C 141.23 144.45 147.45 135.51 145.76 127.18 C 144.43 118.43 134.90 112.11 126.32 114.38 M 59.37 133.45 C 44.48 136.45 32.77 149.92 31.34 164.95 C 30.19 176.07 34.71 187.53 42.92 195.07 C 52.54 203.94 67.08 206.76 79.39 202.41 C 90.91 198.48 99.85 188.15 102.36 176.27 C 105.35 163.38 100.41 149.13 90.16 140.79 C 81.78 133.70 70.04 131.11 59.37 133.45 M 161.34 157.41 C 154.04 158.91 147.29 162.78 142.15 168.15 C 130.58 180.07 129.41 200.36 139.29 213.65 C 148.03 225.93 164.76 231.63 179.16 227.11 C 190.94 223.44 200.47 213.42 203.40 201.41 C 206.75 188.41 202.15 173.78 191.80 165.19 C 183.60 158.02 171.97 155.22 161.34 157.41 Z" />
</g>
<g id="#fcfcfcff">
<path fill="#fcfcfc" stroke="#fcfcfc" stroke-width="0.09375" opacity="1.00" d=" M 85.42 31.68 C 102.76 28.35 121.19 40.30 125.87 57.19 C 130.45 72.31 123.78 90.12 110.04 98.07 C 99.67 104.23 86.19 105.07 75.36 99.59 C 62.31 93.27 54.06 78.48 55.52 64.04 C 56.58 48.06 69.80 34.36 85.42 31.68 Z" />
<path fill="#fcfcfc" stroke="#fcfcfc" stroke-width="0.09375" opacity="1.00" d=" M 184.34 56.33 C 195.60 53.64 207.95 56.69 216.55 64.47 C 226.88 73.33 231.05 88.27 227.26 101.28 C 224.11 111.78 216.17 120.89 205.88 124.87 C 191.80 130.54 174.26 126.14 164.77 114.22 C 157.24 105.20 154.86 92.41 158.12 81.19 C 161.46 68.94 172.13 59.30 184.34 56.33 Z" />
<path fill="#fcfcfc" stroke="#fcfcfc" stroke-width="0.09375" opacity="1.00" d=" M 126.32 114.38 C 134.90 112.11 144.43 118.43 145.76 127.18 C 147.45 135.51 141.23 144.45 132.82 145.75 C 124.47 147.45 115.53 141.24 114.20 132.83 C 112.55 124.75 118.25 116.07 126.32 114.38 Z" />
<path fill="#fcfcfc" stroke="#fcfcfc" stroke-width="0.09375" opacity="1.00" d=" M 59.37 133.45 C 70.04 131.11 81.78 133.70 90.16 140.79 C 100.41 149.13 105.35 163.38 102.36 176.27 C 99.85 188.15 90.91 198.48 79.39 202.41 C 67.08 206.76 52.54 203.94 42.92 195.07 C 34.71 187.53 30.19 176.07 31.34 164.95 C 32.77 149.92 44.48 136.45 59.37 133.45 Z" />
<path fill="#fcfcfc" stroke="#fcfcfc" stroke-width="0.09375" opacity="1.00" d=" M 161.34 157.41 C 171.97 155.22 183.60 158.02 191.80 165.19 C 202.15 173.78 206.75 188.41 203.40 201.41 C 200.47 213.42 190.94 223.44 179.16 227.11 C 164.76 231.63 148.03 225.93 139.29 213.65 C 129.41 200.36 130.58 180.07 142.15 168.15 C 147.29 162.78 154.04 158.91 161.34 157.41 Z" />
</g>
</svg>
