<svg id="svg" version="1.1" xmlns="http://www.w3.org/2000/svg" xmlns:xlink="http://www.w3.org/1999/xlink" width="400" height="400" viewBox="0, 0, 400,400"><g id="svgg"><path id="path0" d="M135.429 48.379 C 99.834 52.876,77.226 87.424,88.261 120.455 C 99.221 153.263,135.407 167.958,166.226 152.117 C 192.498 138.612,203.212 104.952,189.617 78.628 C 179.452 58.948,155.889 45.794,135.429 48.379 M291.967 85.541 C 261.531 88.610,238.829 115.278,241.523 144.798 C 246.632 200.786,320.578 214.788,345.799 164.543 C 364.587 127.112,333.413 81.361,291.967 85.541 M195.199 176.040 C 176.182 180.023,169.125 203.225,182.796 216.816 C 195.492 229.436,214.963 225.728,222.338 209.284 C 230.104 191.971,213.901 172.124,195.199 176.040 M98.061 204.465 C 80.642 206.964,67.686 214.557,58.412 227.701 C 36.066 259.372,52.799 303.645,90.509 312.625 C 139.368 324.259,176.838 270.367,148.983 228.525 C 138.173 212.288,116.130 201.873,98.061 204.465 M255.032 241.429 C 204.717 245.631,185.958 309.989,226.224 340.264 C 253.766 360.972,293.011 351.675,308.498 320.776 C 327.454 282.953,297.107 237.916,255.032 241.429 " stroke="none" fill="#fcfcfc" fill-rule="evenodd"></path><path id="path1" d="M180.055 0.252 C 140.296 5.308,108.918 17.561,79.963 39.339 C 38.120 70.811,12.493 113.482,2.442 168.421 C -0.295 183.380,-1.029 213.998,1.044 226.777 C 14.254 308.238,66.003 368.499,142.321 391.296 C 171.831 400.111,200.685 402.355,230.102 398.121 C 295.317 388.736,353.737 345.197,380.433 286.080 C 399.471 243.923,404.854 200.887,396.291 159.304 C 386.191 110.257,357.219 65.732,316.646 36.901 C 290.988 18.669,258.282 6.251,221.953 0.947 C 215.861 0.058,185.538 -0.446,180.055 0.252 M148.668 48.537 C 179.174 53.906,199.779 81.800,195.209 111.542 C 187.045 164.679,116.244 176.508,91.439 128.879 C 83.361 113.368,83.077 94.536,90.692 79.373 C 101.569 57.717,126.247 44.591,148.668 48.537 M307.295 86.239 C 346.710 95.095,364.391 138.905,341.874 171.922 C 315.378 210.774,254.382 200.091,242.836 154.577 C 235.557 125.880,251.289 97.269,279.487 87.922 C 287.565 85.245,299.621 84.515,307.295 86.239 M205.910 176.053 C 223.321 180.462,230.182 200.648,219.224 215.225 C 207.608 230.678,182.480 226.076,176.420 207.387 C 170.557 189.306,187.433 171.375,205.910 176.053 M113.031 204.835 C 157.027 212.293,174.113 266.884,142.382 298.614 C 107.792 333.202,48.199 308.197,48.199 259.095 C 48.199 224.628,78.785 199.030,113.031 204.835 M267.959 241.730 C 317.886 249.910,331.649 314.870,289.381 342.837 C 256.710 364.453,211.615 344.824,204.760 306.002 C 198.195 268.816,230.814 235.643,267.959 241.730 " stroke="none" fill="#cccccc" fill-rule="evenodd"></path><path id="path2" d="M136.011 48.269 C 136.367 48.362,136.948 48.362,137.304 48.269 C 137.659 48.176,137.368 48.100,136.657 48.100 C 135.946 48.100,135.656 48.176,136.011 48.269 M143.767 48.269 C 144.123 48.362,144.705 48.362,145.060 48.269 C 145.416 48.176,145.125 48.100,144.414 48.100 C 143.703 48.100,143.412 48.176,143.767 48.269 M116.251 53.766 C 114.819 54.543,114.981 54.811,116.436 54.071 C 117.828 53.363,118.074 53.180,117.605 53.200 C 117.419 53.209,116.810 53.463,116.251 53.766 M110.152 57.443 C 109.088 58.159,108.218 58.826,108.218 58.924 C 108.218 59.022,109.132 58.496,110.249 57.754 C 112.024 56.575,112.546 56.140,112.183 56.140 C 112.130 56.140,111.216 56.726,110.152 57.443 M172.114 58.472 C 172.114 58.563,172.725 59.103,173.470 59.672 C 174.216 60.241,174.710 60.518,174.567 60.287 C 174.275 59.815,172.114 58.216,172.114 58.472 M104.709 61.635 C 103.084 63.032,101.090 64.899,100.277 65.784 C 99.464 66.670,100.046 66.230,101.570 64.808 C 103.093 63.385,105.171 61.524,106.187 60.671 C 107.202 59.819,107.950 59.115,107.849 59.108 C 107.747 59.101,106.334 60.238,104.709 61.635 M177.255 62.685 C 178.558 63.893,180.553 65.873,181.687 67.085 C 182.821 68.297,183.336 68.782,182.831 68.162 C 181.010 65.929,179.277 64.169,177.101 62.345 L 174.885 60.488 177.255 62.685 M96.347 70.452 C 95.285 71.735,94.835 72.392,95.017 72.392 C 95.119 72.392,95.647 71.810,96.189 71.099 C 97.196 69.779,97.317 69.281,96.347 70.452 M184.834 71.036 C 185.403 71.781,185.943 72.392,186.034 72.392 C 186.290 72.392,184.691 70.231,184.219 69.939 C 183.988 69.796,184.265 70.290,184.834 71.036 M90.840 79.075 C 90.416 79.908,90.132 80.652,90.209 80.729 C 90.287 80.807,90.712 80.126,91.154 79.216 C 92.160 77.144,91.888 77.022,90.840 79.075 M291.325 85.580 C 291.784 85.668,292.449 85.665,292.802 85.572 C 293.155 85.480,292.779 85.408,291.967 85.412 C 291.154 85.416,290.865 85.491,291.325 85.580 M299.820 85.580 C 300.279 85.668,300.944 85.665,301.297 85.572 C 301.650 85.480,301.274 85.408,300.462 85.412 C 299.649 85.416,299.360 85.491,299.820 85.580 M271.745 91.068 C 270.780 91.570,269.991 92.064,269.991 92.165 C 269.991 92.330,273.647 90.603,274.023 90.260 C 274.480 89.844,273.278 90.270,271.745 91.068 M322.068 91.763 C 322.068 91.865,322.567 92.206,323.176 92.521 C 323.786 92.836,324.284 93.011,324.284 92.909 C 324.284 92.808,323.786 92.467,323.176 92.151 C 322.567 91.836,322.068 91.662,322.068 91.763 M327.608 95.039 C 327.608 95.129,328.564 95.922,329.732 96.802 C 330.900 97.682,333.369 99.821,335.217 101.555 C 338.266 104.416,338.229 104.366,334.815 101.016 C 331.547 97.809,327.608 94.543,327.608 95.039 M263.329 96.426 L 262.050 97.560 263.435 96.566 C 264.659 95.688,265.057 95.291,264.714 95.291 C 264.655 95.291,264.032 95.801,263.329 96.426 M85.412 99.169 C 85.416 99.982,85.491 100.270,85.580 99.811 C 85.668 99.352,85.665 98.687,85.572 98.334 C 85.480 97.981,85.408 98.356,85.412 99.169 M195.476 99.538 C 195.480 100.351,195.556 100.640,195.644 100.180 C 195.733 99.721,195.729 99.056,195.637 98.703 C 195.545 98.350,195.472 98.726,195.476 99.538 M256.869 102.031 L 254.294 104.709 256.971 102.134 C 258.444 100.717,259.649 99.512,259.649 99.456 C 259.649 99.185,259.261 99.544,256.869 102.031 M195.476 106.925 C 195.480 107.738,195.556 108.027,195.644 107.567 C 195.733 107.108,195.729 106.443,195.637 106.090 C 195.545 105.737,195.472 106.113,195.476 106.925 M85.404 107.849 C 85.404 108.560,85.480 108.850,85.573 108.495 C 85.666 108.139,85.666 107.558,85.573 107.202 C 85.480 106.847,85.404 107.138,85.404 107.849 M250.127 110.157 C 248.779 112.148,248.487 112.650,248.679 112.650 C 248.764 112.650,249.440 111.736,250.182 110.619 C 250.924 109.501,251.454 108.587,251.360 108.587 C 251.267 108.587,250.711 109.294,250.127 110.157 M344.044 113.019 C 344.359 113.629,344.700 114.127,344.802 114.127 C 344.904 114.127,344.729 113.629,344.414 113.019 C 344.099 112.410,343.758 111.911,343.656 111.911 C 343.554 111.911,343.729 112.410,344.044 113.019 M246.703 116.012 C 246.078 117.251,245.627 118.326,245.701 118.400 C 245.776 118.475,246.367 117.461,247.015 116.147 C 247.662 114.833,248.113 113.758,248.017 113.758 C 247.920 113.758,247.329 114.772,246.703 116.012 M189.548 128.355 C 189.106 129.265,188.822 130.009,188.917 130.009 C 189.167 130.009,190.660 127.009,190.492 126.842 C 190.415 126.765,189.990 127.446,189.548 128.355 M92.820 131.302 C 93.132 131.911,93.664 132.742,94.002 133.149 C 94.339 133.555,94.242 133.223,93.786 132.410 C 92.780 130.617,92.026 129.753,92.820 131.302 M184.970 135.919 C 183.815 137.544,182.944 138.873,183.034 138.873 C 183.228 138.873,186.432 134.556,186.933 133.619 C 187.632 132.314,187.027 133.022,184.970 135.919 M96.022 136.277 C 96.451 136.880,96.991 137.490,97.222 137.633 C 97.452 137.775,97.176 137.282,96.607 136.536 C 95.372 134.917,94.907 134.711,96.022 136.277 M241.275 136.473 C 241.279 137.285,241.355 137.574,241.443 137.115 C 241.531 136.655,241.528 135.991,241.436 135.637 C 241.343 135.284,241.271 135.660,241.275 136.473 M351.340 136.473 C 351.344 137.285,351.419 137.574,351.508 137.115 C 351.596 136.655,351.593 135.991,351.500 135.637 C 351.408 135.284,351.336 135.660,351.340 136.473 M98.890 139.797 C 99.722 140.813,101.369 142.558,102.549 143.675 C 104.147 145.188,103.947 144.905,101.768 142.567 C 97.691 138.193,97.147 137.670,98.890 139.797 M179.132 142.680 C 177.202 144.565,174.958 146.655,174.146 147.324 C 172.807 148.426,172.790 148.460,173.961 147.691 C 175.206 146.874,183.203 139.265,182.825 139.256 C 182.724 139.254,181.062 140.795,179.132 142.680 M241.282 144.414 C 241.282 145.328,241.355 145.702,241.443 145.245 C 241.531 144.788,241.531 144.040,241.443 143.583 C 241.355 143.126,241.282 143.500,241.282 144.414 M351.340 144.968 C 351.344 145.780,351.419 146.069,351.508 145.610 C 351.596 145.150,351.593 144.485,351.500 144.132 C 351.408 143.779,351.336 144.155,351.340 144.968 M111.911 150.858 C 111.911 150.960,112.410 151.301,113.019 151.616 C 113.629 151.931,114.127 152.106,114.127 152.004 C 114.127 151.903,113.629 151.562,113.019 151.247 C 112.410 150.931,111.911 150.757,111.911 150.858 M165.466 152.539 C 164.349 153.129,163.565 153.620,163.724 153.630 C 164.117 153.653,167.682 151.834,167.682 151.610 C 167.682 151.363,167.734 151.341,165.466 152.539 M137.858 158.722 C 139.026 158.795,140.937 158.795,142.105 158.722 C 143.273 158.648,142.318 158.588,139.982 158.588 C 137.645 158.588,136.690 158.648,137.858 158.722 M345.598 164.923 C 345.052 166.034,344.685 166.944,344.781 166.944 C 345.029 166.944,346.892 163.205,346.726 163.039 C 346.651 162.963,346.143 163.811,345.598 164.923 M245.983 163.384 C 245.983 163.785,248.188 168.052,248.395 168.052 C 248.496 168.052,248.059 167.013,247.422 165.743 C 246.216 163.337,245.983 162.955,245.983 163.384 M343.631 168.513 C 342.360 170.670,342.277 170.855,342.924 170.083 C 343.675 169.189,344.321 168.052,344.079 168.052 C 343.982 168.052,343.781 168.259,343.631 168.513 M341.274 172.114 C 340.840 172.724,340.568 173.223,340.670 173.223 C 340.771 173.223,341.210 172.724,341.644 172.114 C 342.078 171.505,342.349 171.006,342.248 171.006 C 342.146 171.006,341.708 171.505,341.274 172.114 M251.885 173.581 C 252.315 174.184,252.855 174.794,253.085 174.937 C 253.316 175.079,253.039 174.586,252.470 173.840 C 251.235 172.221,250.770 172.015,251.885 173.581 M255.146 177.562 C 256.162 178.730,257.540 180.185,258.207 180.794 C 258.873 181.404,258.106 180.448,256.501 178.670 C 253.236 175.054,252.288 174.279,255.146 177.562 M187.790 178.598 C 186.583 179.321,185.180 180.342,184.672 180.869 C 183.917 181.651,184.018 181.617,185.226 180.679 C 186.039 180.049,187.618 179.030,188.735 178.416 C 189.852 177.801,190.590 177.296,190.375 177.292 C 190.160 177.288,188.997 177.876,187.790 178.598 M209.080 177.425 C 209.457 177.766,212.373 179.128,212.373 178.962 C 212.373 178.752,209.586 177.285,209.187 177.285 C 209.043 177.285,208.995 177.348,209.080 177.425 M334.811 179.793 C 333.389 181.165,331.394 183.007,330.379 183.886 C 328.583 185.439,328.578 185.449,330.194 184.247 C 331.873 182.998,337.922 177.311,337.581 177.302 C 337.479 177.300,336.233 178.421,334.811 179.793 M213.666 179.907 C 214.275 180.356,216.102 182.069,217.725 183.713 C 219.349 185.358,220.311 186.189,219.864 185.560 C 218.822 184.092,214.475 180.021,213.390 179.494 C 212.888 179.252,212.998 179.416,213.666 179.907 M260.313 182.533 C 260.779 183.045,261.942 184.011,262.898 184.681 C 265.069 186.201,264.573 185.666,261.681 183.365 C 260.462 182.395,259.846 182.021,260.313 182.533 M181.118 184.395 C 180.027 185.640,179.390 186.519,179.579 186.519 C 179.671 186.519,180.281 185.854,180.934 185.042 C 182.202 183.464,182.331 183.011,181.118 184.395 M326.945 186.308 C 325.229 187.521,324.988 187.868,326.437 187.038 C 327.112 186.651,327.839 186.127,328.051 185.873 C 328.597 185.220,328.341 185.321,326.945 186.308 M267.036 187.423 C 267.036 187.525,267.535 187.866,268.144 188.181 C 268.753 188.496,269.252 188.671,269.252 188.569 C 269.252 188.468,268.753 188.127,268.144 187.812 C 267.535 187.496,267.036 187.322,267.036 187.423 M320.960 189.843 C 319.843 190.433,319.059 190.924,319.218 190.934 C 319.611 190.957,323.176 189.137,323.176 188.913 C 323.176 188.667,323.228 188.645,320.960 189.843 M292.063 195.644 C 292.523 195.733,293.188 195.729,293.541 195.637 C 293.894 195.545,293.518 195.472,292.705 195.476 C 291.893 195.480,291.604 195.556,292.063 195.644 M300.369 195.638 C 300.725 195.731,301.307 195.731,301.662 195.638 C 302.018 195.545,301.727 195.469,301.016 195.469 C 300.305 195.469,300.014 195.545,300.369 195.638 M80.517 208.864 C 80.009 209.155,79.760 209.392,79.963 209.392 C 80.166 209.392,80.748 209.155,81.256 208.864 C 81.764 208.574,82.013 208.336,81.810 208.336 C 81.607 208.336,81.025 208.574,80.517 208.864 M125.608 208.821 C 125.984 209.166,131.117 211.624,131.117 211.459 C 131.117 211.253,126.111 208.680,125.709 208.680 C 125.569 208.680,125.523 208.743,125.608 208.821 M77.101 210.551 C 76.339 210.954,75.716 211.365,75.716 211.466 C 75.716 211.567,76.380 211.310,77.193 210.896 C 78.006 210.481,78.670 210.062,78.670 209.965 C 78.670 209.723,78.668 209.724,77.101 210.551 M73.218 212.937 C 72.154 213.653,71.283 214.320,71.283 214.418 C 71.283 214.516,72.198 213.990,73.315 213.248 C 75.090 212.069,75.611 211.634,75.249 211.634 C 75.195 211.634,74.281 212.220,73.218 212.937 M219.931 213.573 C 219.361 214.437,219.132 214.948,219.420 214.710 C 219.975 214.252,221.389 212.004,221.123 212.004 C 221.037 212.004,220.500 212.710,219.931 213.573 M134.441 213.584 C 134.441 213.665,135.480 214.532,136.750 215.511 C 138.019 216.489,138.767 216.959,138.410 216.555 C 137.736 215.790,134.441 213.324,134.441 213.584 M179.883 214.035 C 180.720 215.274,184.051 218.663,185.226 219.471 C 185.836 219.890,185.469 219.455,184.412 218.505 C 183.355 217.555,181.791 215.994,180.937 215.037 C 180.083 214.080,179.609 213.629,179.883 214.035 M216.793 217.452 L 214.774 219.575 216.898 217.556 C 218.871 215.681,219.190 215.328,218.916 215.328 C 218.859 215.328,217.903 216.283,216.793 217.452 M142.580 220.660 C 144.315 222.501,146.282 224.672,146.952 225.485 C 148.057 226.825,148.092 226.842,147.321 225.669 C 146.853 224.958,144.886 222.787,142.949 220.845 L 139.428 217.313 142.580 220.660 M63.656 221.003 C 60.725 224.105,57.676 227.886,58.104 227.886 C 58.194 227.886,58.989 226.930,59.870 225.762 C 60.752 224.594,62.789 222.267,64.398 220.591 C 66.006 218.915,67.233 217.544,67.123 217.544 C 67.013 217.544,65.453 219.100,63.656 221.003 M213.187 220.288 C 211.471 221.501,211.230 221.847,212.678 221.018 C 213.354 220.631,214.081 220.106,214.293 219.852 C 214.839 219.200,214.583 219.301,213.187 220.288 M149.017 228.532 C 149.586 229.395,150.122 230.102,150.208 230.102 C 150.475 230.102,149.061 227.854,148.506 227.395 C 148.218 227.157,148.447 227.669,149.017 228.532 M53.721 234.940 C 53.196 235.976,52.829 236.885,52.904 236.961 C 52.980 237.037,53.488 236.189,54.033 235.077 C 54.578 233.966,54.946 233.056,54.850 233.056 C 54.754 233.056,54.246 233.904,53.721 234.940 M152.427 234.344 C 152.765 235.053,153.107 235.567,153.187 235.487 C 153.356 235.318,152.234 233.056,151.982 233.056 C 151.889 233.056,152.089 233.636,152.427 234.344 M254.390 241.443 C 254.850 241.531,255.515 241.528,255.868 241.436 C 256.221 241.343,255.845 241.271,255.032 241.275 C 254.220 241.279,253.931 241.355,254.390 241.443 M262.885 241.443 C 263.345 241.531,264.009 241.528,264.363 241.436 C 264.716 241.343,264.340 241.271,263.527 241.275 C 262.715 241.279,262.426 241.355,262.885 241.443 M285.134 247.626 C 285.134 247.728,285.633 248.069,286.242 248.384 C 286.851 248.699,287.350 248.874,287.350 248.772 C 287.350 248.671,286.851 248.330,286.242 248.015 C 285.633 247.700,285.134 247.525,285.134 247.626 M287.719 249.050 C 287.719 249.134,288.675 249.816,289.843 250.566 C 291.011 251.316,291.512 251.543,290.957 251.071 C 289.860 250.138,287.719 248.802,287.719 249.050 M294.169 253.703 C 295.192 254.598,297.516 256.841,299.333 258.690 C 301.837 261.238,302.168 261.498,300.702 259.766 C 299.017 257.775,294.554 253.612,292.876 252.466 C 292.563 252.252,293.145 252.809,294.169 253.703 M222.146 255.522 C 220.326 257.112,218.587 258.730,218.283 259.117 C 217.978 259.505,219.058 258.637,220.683 257.188 C 222.308 255.740,224.137 254.127,224.746 253.605 C 225.355 253.082,225.765 252.650,225.655 252.643 C 225.546 252.637,223.967 253.932,222.146 255.522 M48.120 256.140 C 48.123 257.156,48.195 257.528,48.280 256.966 C 48.365 256.405,48.362 255.574,48.275 255.120 C 48.187 254.665,48.118 255.125,48.120 256.140 M158.584 259.464 C 158.585 261.496,158.647 262.280,158.721 261.206 C 158.796 260.133,158.796 258.471,158.720 257.513 C 158.644 256.555,158.583 257.433,158.584 259.464 M216.597 261.219 L 215.512 262.419 216.713 261.334 C 217.373 260.738,217.913 260.198,217.913 260.134 C 217.913 259.849,217.608 260.100,216.597 261.219 M48.120 262.050 C 48.123 263.066,48.195 263.437,48.280 262.876 C 48.365 262.314,48.362 261.483,48.275 261.029 C 48.187 260.575,48.118 261.034,48.120 262.050 M304.928 265.651 C 305.678 266.819,306.360 267.775,306.444 267.775 C 306.692 267.775,305.356 265.634,304.423 264.537 C 303.951 263.982,304.178 264.483,304.928 265.651 M213.192 265.651 C 211.844 267.642,211.553 268.144,211.745 268.144 C 211.830 268.144,212.506 267.230,213.248 266.113 C 213.990 264.995,214.520 264.081,214.426 264.081 C 214.332 264.081,213.777 264.788,213.192 265.651 M308.295 271.640 C 309.046 273.156,309.720 274.337,309.794 274.263 C 309.958 274.099,307.355 268.883,307.108 268.883 C 307.011 268.883,307.545 270.123,308.295 271.640 M209.954 271.136 C 209.429 272.171,209.061 273.081,209.137 273.157 C 209.213 273.232,209.721 272.385,210.266 271.273 C 210.811 270.162,211.178 269.252,211.083 269.252 C 210.987 269.252,210.479 270.100,209.954 271.136 M152.616 283.853 C 151.968 285.167,151.517 286.242,151.614 286.242 C 151.862 286.242,154.095 281.765,153.930 281.600 C 153.855 281.525,153.264 282.539,152.616 283.853 M148.635 290.580 C 147.431 292.357,144.708 295.639,142.585 297.875 C 138.822 301.838,138.806 301.861,141.968 298.800 C 144.983 295.880,148.878 291.136,150.436 288.485 C 151.702 286.333,150.820 287.359,148.635 290.580 M59.134 292.334 C 59.789 293.248,60.657 294.286,61.061 294.643 C 61.465 294.999,60.995 294.252,60.017 292.982 C 57.962 290.317,57.375 289.886,59.134 292.334 M314.430 296.584 C 314.430 297.904,314.497 298.444,314.579 297.784 C 314.661 297.124,314.661 296.043,314.579 295.383 C 314.497 294.723,314.430 295.263,314.430 296.584 M63.712 297.635 C 64.931 298.917,66.759 300.646,67.775 301.479 C 69.897 303.219,69.434 302.739,64.820 298.418 C 62.217 295.981,61.977 295.811,63.712 297.635 M74.608 306.352 C 74.608 306.454,75.106 306.795,75.716 307.110 C 76.325 307.425,76.824 307.600,76.824 307.498 C 76.824 307.397,76.325 307.056,75.716 306.741 C 75.106 306.425,74.608 306.251,74.608 306.352 M130.656 307.136 C 129.275 307.886,129.359 308.198,130.748 307.479 C 131.357 307.164,131.856 306.827,131.856 306.731 C 131.856 306.493,131.816 306.507,130.656 307.136 M98.338 314.197 C 98.693 314.290,99.275 314.290,99.631 314.197 C 99.986 314.104,99.695 314.028,98.984 314.028 C 98.273 314.028,97.982 314.104,98.338 314.197 M107.941 314.197 C 108.296 314.290,108.878 314.290,109.234 314.197 C 109.589 314.104,109.298 314.028,108.587 314.028 C 107.876 314.028,107.585 314.104,107.941 314.197 M308.479 320.787 C 307.832 322.101,307.381 323.176,307.477 323.176 C 307.725 323.176,309.958 318.699,309.793 318.534 C 309.718 318.460,309.127 319.474,308.479 320.787 M209.049 319.621 C 209.049 320.020,210.516 322.807,210.726 322.807 C 210.828 322.807,210.554 322.101,210.119 321.237 C 209.263 319.539,209.049 319.216,209.049 319.621 M304.516 327.516 C 301.781 331.583,294.444 338.960,290.489 341.618 C 287.480 343.642,285.895 344.912,287.904 343.691 C 294.455 339.709,302.732 331.488,306.300 325.419 C 307.579 323.243,306.673 324.308,304.516 327.516 M213.850 327.978 C 214.284 328.587,214.723 329.086,214.824 329.086 C 214.926 329.086,214.654 328.587,214.220 327.978 C 213.786 327.368,213.348 326.870,213.246 326.870 C 213.145 326.870,213.416 327.368,213.850 327.978 M215.995 330.840 C 216.599 331.602,217.477 332.558,217.946 332.964 C 218.415 333.370,217.986 332.747,216.993 331.579 C 214.970 329.201,214.303 328.706,215.995 330.840 M220.683 335.927 C 221.902 337.079,223.564 338.533,224.377 339.158 C 226.514 340.800,225.232 339.567,221.607 336.493 C 219.111 334.377,218.922 334.261,220.683 335.927 M231.579 344.043 C 231.579 344.289,236.795 346.893,236.959 346.728 C 237.033 346.654,235.852 345.980,234.336 345.230 C 232.820 344.480,231.579 343.945,231.579 344.043 M283.287 345.891 C 281.560 346.785,280.276 347.524,280.433 347.535 C 280.826 347.560,286.611 344.634,286.611 344.410 C 286.611 344.159,286.768 344.089,283.287 345.891 M254.940 351.501 C 255.295 351.594,255.877 351.594,256.233 351.501 C 256.588 351.408,256.297 351.332,255.586 351.332 C 254.875 351.332,254.584 351.408,254.940 351.501 M263.804 351.501 C 264.160 351.594,264.741 351.594,265.097 351.501 C 265.452 351.408,265.162 351.332,264.451 351.332 C 263.740 351.332,263.449 351.408,263.804 351.501 " stroke="none" fill="#e4e4e4" fill-rule="evenodd"></path><path id="path3" d="M179.299 143.029 L 177.839 144.598 179.409 143.138 C 180.869 141.781,181.148 141.459,180.869 141.459 C 180.809 141.459,180.102 142.165,179.299 143.029 M141.459 219.137 C 141.459 219.200,141.999 219.741,142.659 220.337 L 143.860 221.422 142.775 220.222 C 141.764 219.103,141.459 218.851,141.459 219.137 M142.178 298.707 L 140.905 300.092 142.290 298.820 C 143.579 297.635,143.845 297.322,143.563 297.322 C 143.501 297.322,142.878 297.946,142.178 298.707 M298.041 335.642 L 296.768 337.027 298.153 335.754 C 298.915 335.054,299.538 334.431,299.538 334.369 C 299.538 334.087,299.226 334.353,298.041 335.642 " stroke="none" fill="#dcdcdc" fill-rule="evenodd"></path><path id="path4" d="M335.719 101.662 C 337.249 103.293,337.581 103.586,337.581 103.309 C 337.581 103.249,336.791 102.460,335.826 101.554 L 334.072 99.908 335.719 101.662 M85.042 103.601 C 85.046 104.414,85.122 104.703,85.210 104.243 C 85.299 103.784,85.295 103.119,85.203 102.766 C 85.111 102.413,85.038 102.789,85.042 103.601 M199.358 175.330 C 199.817 175.419,200.482 175.415,200.835 175.323 C 201.188 175.231,200.813 175.158,200.000 175.162 C 199.187 175.166,198.899 175.242,199.358 175.330 M175.162 200.000 C 175.166 200.813,175.242 201.101,175.330 200.642 C 175.419 200.183,175.415 199.518,175.323 199.165 C 175.231 198.812,175.158 199.187,175.162 200.000 M101.673 204.150 C 102.644 204.226,104.140 204.225,104.997 204.148 C 105.855 204.071,105.060 204.008,103.232 204.009 C 101.404 204.010,100.702 204.074,101.673 204.150 M216.967 217.636 L 215.882 218.837 217.082 217.752 C 217.742 217.155,218.283 216.615,218.283 216.551 C 218.283 216.266,217.978 216.517,216.967 217.636 M203.964 294.367 C 203.964 295.078,204.040 295.369,204.133 295.014 C 204.226 294.658,204.226 294.077,204.133 293.721 C 204.040 293.366,203.964 293.657,203.964 294.367 M64.266 298.615 C 64.955 299.326,65.602 299.908,65.704 299.908 C 65.805 299.908,65.324 299.326,64.635 298.615 C 63.946 297.904,63.299 297.322,63.198 297.322 C 63.096 297.322,63.577 297.904,64.266 298.615 M203.964 298.800 C 203.964 299.511,204.040 299.801,204.133 299.446 C 204.226 299.090,204.226 298.509,204.133 298.153 C 204.040 297.798,203.964 298.089,203.964 298.800 M102.585 314.579 C 103.246 314.661,104.326 314.661,104.986 314.579 C 105.646 314.497,105.106 314.430,103.786 314.430 C 102.465 314.430,101.925 314.497,102.585 314.579 M259.192 351.877 C 259.651 351.965,260.316 351.962,260.669 351.870 C 261.022 351.777,260.646 351.705,259.834 351.709 C 259.021 351.713,258.732 351.789,259.192 351.877 " stroke="none" fill="#d4d4d4" fill-rule="evenodd"></path></g></svg>