<svg xmlns="http://www.w3.org/2000/svg" id="apple" width="16" height="16" viewBox="0 0 16 16">
    <defs>
        <style>
            .cls-2{fill:#939393}
        </style>
    </defs>
    <path id="Rectangle_2917" fill="none" d="M0 0H16V16H0z"/>
    <g id="Group_10485">
        <path id="Path_15542" d="M14.326 12.08a10.526 10.526 0 0 1-.957 1.785c-.621.945-1.5 2.123-2.581 2.133-.964.009-1.212-.627-2.52-.62s-1.582.631-2.546.622c-1.085-.01-1.914-1.073-2.536-2.019-1.736-2.644-1.918-5.746-.847-7.395a3.841 3.841 0 0 1 3.092-1.858c1.15 0 1.872.63 2.823.63.922 0 1.484-.631 2.814-.631A3.753 3.753 0 0 1 13.9 6.219a3.236 3.236 0 0 0 .43 5.861z" class="cls-2"/>
        <path id="Path_15543" d="M10.6 2.7a3.637 3.637 0 0 0 .813-2.7 3.936 3.936 0 0 0-2.542 1.367A3.386 3.386 0 0 0 8.04 4a3.326 3.326 0 0 0 2.56-1.3z" class="cls-2"/>
    </g>
</svg>
