<svg xmlns="http://www.w3.org/2000/svg" width="276.4" height="206.2" viewBox="0 0 276.4 206.2">
  <defs>
    <style>
      .cls-1 {
        fill: #f9f9fc;
      }

      .cls-11, .cls-2 {
        fill: #e8eaf1;
      }

      .cls-3 {
        fill: #f4f6f8;
      }

      .cls-4 {
        fill: #e1e7ed;
      }

      .cls-5 {
        fill: #8e99a4;
      }

      .cls-17, .cls-18, .cls-6, .cls-8, .cls-9 {
        fill: none;
      }

      .cls-6 {
        stroke: #c6cbdb;
      }

      .cls-11, .cls-17, .cls-6, .cls-8, .cls-9 {
        stroke-linecap: round;
      }

      .cls-11, .cls-6, .cls-8, .cls-9 {
        stroke-linejoin: round;
        stroke-width: 2.4px;
      }

      .cls-7 {
        fill: #e2e5ed;
      }

      .cls-11, .cls-8, .cls-9 {
        stroke: #c5d0d9;
      }

      .cls-15, .cls-18, .cls-9 {
        fill-rule: evenodd;
      }

      .cls-10 {
        opacity: 0.13;
      }

      .cls-12, .cls-16 {
        fill: #fdd760;
      }

      .cls-12, .cls-17, .cls-18 {
        stroke: #ffc729;
        stroke-width: 3.696px;
      }

      .cls-13 {
        opacity: 0.28;
      }

      .cls-14 {
        fill: #fcd66d;
      }

      .cls-15 {
        fill: #ffc729;
      }

      .cls-19 {
        opacity: 0.21;
      }

      .cls-20 {
        fill: #fff;
      }

      .cls-21 {
        opacity: 0.1;
      }

      .cls-21, .cls-22 {
        isolation: isolate;
      }

      .cls-22 {
        mix-blend-mode: soft-light;
      }
    </style>
  </defs>
  <g id="empty_cart" data-name="empty cart" transform="translate(-0.8)">
    <path id="Shape" class="cls-1" d="M76.951,20.285v-.344a20.323,20.323,0,0,1,40.062-4.44,13.43,13.43,0,0,1,13.169.14,13.007,13.007,0,0,1,6.54,11.254,7.865,7.865,0,0,1-.032.873,14.025,14.025,0,0,1,9.083,15.658A14.215,14.215,0,0,1,131.73,55h-50.9a17.545,17.545,0,0,1-3.875-34.715Z"/>
    <path id="Shape_2" class="cls-2" d="M202,112h28.61L244,95H215.341Z"/>
    <path id="Rectangle-path" class="cls-3" d="M158,112h72v63H158Z"/>
    <path id="Rectangle-path_2" class="cls-4" d="M158,112h44v63H158Z"/>
    <path id="Shape_3" class="cls-2" d="M158.318,112,145,95h43.746L202,112Z"/>
    <g id="Shape_5">
      <path id="Path_15495" data-name="Path 15495" class="cls-5" d="M120,177H266"/>
      <path id="Path_15496" data-name="Path 15496" class="cls-6" d="M120,177H266"/>
    </g>
    <path id="Rectangle-path_3" class="cls-1" d="M37,155.152A1.152,1.152,0,0,1,38.152,154h46.7A1.152,1.152,0,0,1,86,155.152v7.7A1.152,1.152,0,0,1,84.848,164h-46.7A1.152,1.152,0,0,1,37,162.848Z"/>
    <g id="Shape_6">
      <path id="Path_15497" data-name="Path 15497" class="cls-5" d="M9,176H9Z"/>
      <path id="Path_15498" data-name="Path 15498" class="cls-6" d="M9,176H136"/>
    </g>
    <g id="_Group_">
      <path id="Shape_7" class="cls-2" d="M162.189,90.021a.11.11,0,0,1,0,.139Z"/>
      <path id="Shape_8" class="cls-2" d="M162.19,122.193v59.774A23.083,23.083,0,0,1,139.062,205H62.27a23.084,23.084,0,0,1-23.122-22.878l-.429-59.929Z"/>
      <path id="Shape_9" class="cls-2" d="M162.189,90.165v32.028H38.718l-.22-31.6,123.568-.4A.113.113,0,0,0,162.189,90.165Z"/>
      <path id="Shape_10" class="cls-7" d="M162.191,90.021v.139a.114.114,0,0,1-.086.032l-123.568.4,3.53-1.673,13.3-6.311-13.653-8.54a.16.16,0,0,1,.086-.294l115.547-.4a.123.123,0,0,1,.081.219l-.081.064-11.223,8.914,11.223,5.184,4.8,2.213A.071.071,0,0,1,162.191,90.021Z"/>
      <path id="Shape_11" class="cls-2" d="M157.35,73.673v14.1l-11.223-5.184Z"/>
      <path id="Shape_12" class="cls-2" d="M55.372,82.593,42.068,88.9l-.349-14.819Z"/>
      <path id="Shape_13" class="cls-8" d="M41.719,74.079,42.068,88.9"/>
      <path id="Shape_14" class="cls-8" d="M38.5,90.593l.22,31.6.429,59.929A23.084,23.084,0,0,0,62.27,205h76.792a23.082,23.082,0,0,0,23.133-23.033V89.791"/>
      <path id="Shape_15" class="cls-9" d="M41.718,74.069a.16.16,0,0,1,.086-.294l115.547-.4a.123.123,0,0,1,.081.219l-.081.064-11.223,8.914,11.223,5.184,4.8,2.213a.068.068,0,0,1,.037.032.1.1,0,0,1-.086.171l-123.562.422h0l3.53-1.673,13.3-6.311Z"/>
      <path id="Shape_16" class="cls-8" d="M157.352,73.673v14.1"/>
      <path id="Shape_17" class="cls-8" d="M38.5,122.193H162.189"/>
    </g>
    <g id="_Group_2">
      <g id="Group" class="cls-10">
        <path id="Shape_18" class="cls-2" d="M162.724,90.059H147.148s.911,113.952,2.207,113.7c2.875-.568,12.64-7.4,12.729-18.808l.463-60.018Z"/>
        <path id="Shape_19" class="cls-9" d="M147.148,90.059s.911,113.952,2.207,113.7c2.875-.568,12.64-7.4,12.729-18.808l.463-60.018.166-34.869Z"/>
      </g>
    </g>
    <path id="Shape_20" class="cls-8" d="M134,111c0,29.048-8.307,59-33.147,59C76.414,170,68,140.873,68,111.825"/>
    <path id="Oval" class="cls-11" d="M68,112a5,5,0,1,0-5-5A5,5,0,0,0,68,112Z"/>
    <path id="Oval_2" class="cls-11" d="M134,111a5,5,0,1,0-5-5A5,5,0,0,0,134,111Z"/>
    <g id="Shape_21" transform="translate(0 1)">
      <path id="Path_15499" data-name="Path 15499" class="cls-5" d="M271,176h0Z"/>
      <path id="Path_15500" data-name="Path 15500" class="cls-6" d="M271,176h5"/>
    </g>
    <g id="Shape_22">
      <path id="Path_15501" data-name="Path 15501" class="cls-5" d="M4,176H4Z"/>
      <path id="Path_15502" data-name="Path 15502" class="cls-6" d="M4,176H2"/>
    </g>
    <path id="Shape_24" class="cls-3" d="M181.253,49.652V49.42a13.428,13.428,0,0,1,26.518-2.985,8.767,8.767,0,0,1,13.047,7.66v.587A9.45,9.45,0,0,1,217.533,73H183.816a11.815,11.815,0,0,1-2.563-23.348Z"/>
    <g id="Group_2" data-name="Group 2">
      <path id="Shape_25" class="cls-12" d="M71.593,12.817H27.364c-5.419,0-10.323,4.364-10.323,9.743V42.605c0,5.384,4.9,9.743,10.323,9.743H58.776l11.908,9.4v-9.4h.909a9.854,9.854,0,0,0,6.941-2.854,9.706,9.706,0,0,0,2.875-6.889V22.56a9.706,9.706,0,0,0-2.875-6.889,9.854,9.854,0,0,0-6.941-2.854Z"/>
      <g id="Group_3" class="cls-13">
        <path id="Shape_26" class="cls-14" d="M27.419,42.605V22.56c0-5.379,4.9-9.743,10.323-9.743H27.362c-5.419,0-10.323,4.364-10.323,9.743V42.605c0,5.384,4.9,9.743,10.323,9.743H37.741C32.322,52.348,27.419,47.984,27.419,42.605Z"/>
      </g>
      <path id="Oval_2-2" data-name="Oval 2" class="cls-15" d="M37.672,31.608a2.941,2.941,0,1,0-2.955-2.941A2.948,2.948,0,0,0,37.672,31.608Z"/>
      <path id="Oval_2_Copy" data-name="Oval 2 Copy" class="cls-15" d="M57.373,31.608a2.941,2.941,0,1,0-2.955-2.941A2.948,2.948,0,0,0,57.373,31.608Z"/>
      <g id="Shape_27">
        <path id="Path_15503" data-name="Path 15503" class="cls-16" d="M41.443,41.046q7.1-6.084,14.237,0Z"/>
        <path id="Path_15504" data-name="Path 15504" class="cls-17" d="M41.443,41.046q7.1-6.084,14.237,0"/>
      </g>
      <path id="Shape_28" class="cls-18" d="M71.593,12.817H27.364c-5.419,0-10.323,4.364-10.323,9.743V42.605c0,5.384,4.9,9.743,10.323,9.743H58.776l11.908,9.4v-9.4h.909a9.854,9.854,0,0,0,6.941-2.854,9.706,9.706,0,0,0,2.875-6.889V22.56a9.706,9.706,0,0,0-2.875-6.889,9.854,9.854,0,0,0-6.941-2.854Z"/>
    </g>
    <g id="Group_2-2" data-name="Group_2" class="cls-19" transform="translate(2 6.786)">
      <path id="Shape_23" class="cls-20" d="M24.918,36.784V14.723C24.918,8.8,30.314,4,36.278,4H24.856C18.892,4,13.5,8.8,13.5,14.723V36.784c0,5.925,5.391,10.723,11.36,10.723H36.278C30.314,47.507,24.918,42.7,24.918,36.784Z" transform="translate(0)"/>
    </g>
    <g id="Group_10454" data-name="Group 10454" class="cls-21" transform="translate(88.093 134.588)">
      <g id="Group_10357" data-name="Group 10357" class="cls-22" transform="translate(0)">
        <path id="Path_15434" data-name="Path 15434" d="M197.651,271.174a.58.58,0,0,0-.141-.217l-3.244-3.056a1.661,1.661,0,0,0-1.139-.453l-6.7-.009h0a.584.584,0,0,0-.064.007c-.015,0-.03,0-.045,0a.587.587,0,0,0-.216.042l-.009,0a.594.594,0,0,0-.322.322s0,.006,0,.009a.586.586,0,0,0-.042.216v7.706h-7.706a.592.592,0,0,0-.592.592c0,.007,0,.013,0,.021a.581.581,0,0,0-.034.2l.068,6.7a1.693,1.693,0,0,0,.489,1.176l3.125,3.169,0,0a2.172,2.172,0,0,0,1.558.659h13.42a2.183,2.183,0,0,0,2.18-2.18v-13.42A2.169,2.169,0,0,0,197.651,271.174Zm-4.2-2.411,1.819,1.714h-5.681l-1.852-1.852,5.384.007A.482.482,0,0,1,193.454,268.762Zm-12.1,10.014-1.884-1.854h6.605l1.854,1.854Zm7.407-.841-1.853-1.853v-6.621l1.853,1.853Zm-10.115,5.3-.057-5.518,1.871,1.841v5.725l-1.666-1.69A.516.516,0,0,1,178.643,283.236Zm18.411,2.84a1,1,0,0,1-1,1h-13.42a1,1,0,0,1-1-1V279.96h7.708a.592.592,0,0,0,.592-.592V271.66h6.116a1,1,0,0,1,1,1Z" transform="translate(-173.237 -262.882)"/>
        <path id="Path_15435" data-name="Path 15435" d="M162.69,258.876s0-.006,0-.009a.585.585,0,0,0,.042-.216h0v-7.707h7.707a.589.589,0,0,0,.372-1.048l-2.873-2.827a.59.59,0,0,0-.536-.346h-8.3a.592.592,0,0,0-.592.592v8.223a.58.58,0,0,0,.011.182l0,.024a.573.573,0,0,0,.041.118.585.585,0,0,0,.1.145s0,.009.009.013l.012.012h0l3.036,3.036a.594.594,0,0,0,.194.129l.009,0a.576.576,0,0,0,.432,0l.009,0A.593.593,0,0,0,162.69,258.876ZM159.7,248.748l1.853,1.854v6.621l-1.853-1.854Zm7.407-.841,1.884,1.854h-6.6l-1.854-1.854Z" transform="translate(-158.511 -246.724)"/>
      </g>
      <g id="Group_10359" data-name="Group 10359" class="cls-22" transform="translate(0)">
        <path id="Path_15434-2" data-name="Path 15434" d="M197.651,271.174a.58.58,0,0,0-.141-.217l-3.244-3.056a1.661,1.661,0,0,0-1.139-.453l-6.7-.009h0a.584.584,0,0,0-.064.007c-.015,0-.03,0-.045,0a.587.587,0,0,0-.216.042l-.009,0a.594.594,0,0,0-.322.322s0,.006,0,.009a.586.586,0,0,0-.042.216v7.706h-7.706a.592.592,0,0,0-.592.592c0,.007,0,.013,0,.021a.581.581,0,0,0-.034.2l.068,6.7a1.693,1.693,0,0,0,.489,1.176l3.125,3.169,0,0a2.172,2.172,0,0,0,1.558.659h13.42a2.183,2.183,0,0,0,2.18-2.18v-13.42A2.169,2.169,0,0,0,197.651,271.174Zm-4.2-2.411,1.819,1.714h-5.681l-1.852-1.852,5.384.007A.482.482,0,0,1,193.454,268.762Zm-12.1,10.014-1.884-1.854h6.605l1.854,1.854Zm7.407-.841-1.853-1.853v-6.621l1.853,1.853Zm-10.115,5.3-.057-5.518,1.871,1.841v5.725l-1.666-1.69A.516.516,0,0,1,178.643,283.236Zm18.411,2.84a1,1,0,0,1-1,1h-13.42a1,1,0,0,1-1-1V279.96h7.708a.592.592,0,0,0,.592-.592V271.66h6.116a1,1,0,0,1,1,1Z" transform="translate(-173.237 -262.882)"/>
        <path id="Path_15435-2" data-name="Path 15435" d="M162.69,258.876s0-.006,0-.009a.585.585,0,0,0,.042-.216h0v-7.707h7.707a.589.589,0,0,0,.372-1.048l-2.873-2.827a.59.59,0,0,0-.536-.346h-8.3a.592.592,0,0,0-.592.592v8.223a.58.58,0,0,0,.011.182l0,.024a.573.573,0,0,0,.041.118.585.585,0,0,0,.1.145s0,.009.009.013l.012.012h0l3.036,3.036a.594.594,0,0,0,.194.129l.009,0a.576.576,0,0,0,.432,0l.009,0A.593.593,0,0,0,162.69,258.876ZM159.7,248.748l1.853,1.854v6.621l-1.853-1.854Zm7.407-.841,1.884,1.854h-6.6l-1.854-1.854Z" transform="translate(-158.511 -246.724)"/>
      </g>
      <g id="Group_10360" data-name="Group 10360" class="cls-22" transform="translate(0)">
        <path id="Path_15434-3" data-name="Path 15434" d="M197.651,271.174a.58.58,0,0,0-.141-.217l-3.244-3.056a1.661,1.661,0,0,0-1.139-.453l-6.7-.009h0a.584.584,0,0,0-.064.007c-.015,0-.03,0-.045,0a.587.587,0,0,0-.216.042l-.009,0a.594.594,0,0,0-.322.322s0,.006,0,.009a.586.586,0,0,0-.042.216v7.706h-7.706a.592.592,0,0,0-.592.592c0,.007,0,.013,0,.021a.581.581,0,0,0-.034.2l.068,6.7a1.693,1.693,0,0,0,.489,1.176l3.125,3.169,0,0a2.172,2.172,0,0,0,1.558.659h13.42a2.183,2.183,0,0,0,2.18-2.18v-13.42A2.169,2.169,0,0,0,197.651,271.174Zm-4.2-2.411,1.819,1.714h-5.681l-1.852-1.852,5.384.007A.482.482,0,0,1,193.454,268.762Zm-12.1,10.014-1.884-1.854h6.605l1.854,1.854Zm7.407-.841-1.853-1.853v-6.621l1.853,1.853Zm-10.115,5.3-.057-5.518,1.871,1.841v5.725l-1.666-1.69A.516.516,0,0,1,178.643,283.236Zm18.411,2.84a1,1,0,0,1-1,1h-13.42a1,1,0,0,1-1-1V279.96h7.708a.592.592,0,0,0,.592-.592V271.66h6.116a1,1,0,0,1,1,1Z" transform="translate(-173.237 -262.882)"/>
        <path id="Path_15435-3" data-name="Path 15435" d="M162.69,258.876s0-.006,0-.009a.585.585,0,0,0,.042-.216h0v-7.707h7.707a.589.589,0,0,0,.372-1.048l-2.873-2.827a.59.59,0,0,0-.536-.346h-8.3a.592.592,0,0,0-.592.592v8.223a.58.58,0,0,0,.011.182l0,.024a.573.573,0,0,0,.041.118.585.585,0,0,0,.1.145s0,.009.009.013l.012.012h0l3.036,3.036a.594.594,0,0,0,.194.129l.009,0a.576.576,0,0,0,.432,0l.009,0A.593.593,0,0,0,162.69,258.876ZM159.7,248.748l1.853,1.854v6.621l-1.853-1.854Zm7.407-.841,1.884,1.854h-6.6l-1.854-1.854Z" transform="translate(-158.511 -246.724)"/>
      </g>
    </g>
  </g>
</svg>
